# MagicaVoxel @ Ephtracy

# group
o 

# material
mtllib CristmasTree.mtl
usemtl palette

# normals
vn -1 0 0
vn 1 0 0
vn 0 0 1
vn 0 0 -1
vn 0 -1 0
vn 0 1 0

# texcoords
vt 0.970703 0.5
vt 0.974609 0.5
vt 0.978516 0.5
vt 0.982422 0.5

# verts
v -0.8 -0.7 0.8
v -0.8 -0.7 -0.8
v -0.8 -0.5 0.8
v -0.8 -0.5 -0.8
v -0.8 -0.3 0.8
v -0.8 -0.3 -0.8
v -0.6 -0.3 0.6
v -0.6 -0.3 -0.6
v -0.6 -0.1 0.6
v -0.6 -0.1 -0.6
v -0.6 0.1 0.6
v -0.6 0.1 -0.6
v -0.4 0.1 0.4
v -0.4 0.1 -0.4
v -0.4 0.3 0.4
v -0.4 0.3 -0.4
v -0.4 0.5 0.4
v -0.4 0.5 -0.4
v -0.3 -1 0.3
v -0.3 -1 -0.3
v -0.3 -0.8 0.3
v -0.3 -0.8 -0.3
v -0.3 -0.7 0.3
v -0.3 -0.7 -0.3
v -0.2 0.5 0.2
v -0.2 0.5 -0.2
v -0.2 0.7 0.2
v -0.2 0.7 -0.2
v -0.2 0.9 0.2
v -0.2 0.9 -0.2
v 0.2 0.5 0.2
v 0.2 0.5 -0.2
v 0.2 0.7 0.2
v 0.2 0.7 -0.2
v 0.2 0.9 0.2
v 0.2 0.9 -0.2
v 0.3 -1 0.3
v 0.3 -1 -0.3
v 0.3 -0.8 0.3
v 0.3 -0.8 -0.3
v 0.3 -0.7 0.3
v 0.3 -0.7 -0.3
v 0.4 0.1 0.4
v 0.4 0.1 -0.4
v 0.4 0.3 0.4
v 0.4 0.3 -0.4
v 0.4 0.5 0.4
v 0.4 0.5 -0.4
v 0.6 -0.3 0.6
v 0.6 -0.3 -0.6
v 0.6 -0.1 0.6
v 0.6 -0.1 -0.6
v 0.6 0.1 0.6
v 0.6 0.1 -0.6
v 0.8 -0.7 0.8
v 0.8 -0.7 -0.8
v 0.8 -0.5 0.8
v 0.8 -0.5 -0.8
v 0.8 -0.3 0.8
v 0.8 -0.3 -0.8
v -0.8 -0.7 0.8
v -0.8 -0.5 0.8
v -0.8 -0.3 0.8
v 0.8 -0.7 0.8
v 0.8 -0.5 0.8
v 0.8 -0.3 0.8
v -0.6 -0.3 0.6
v -0.6 -0.1 0.6
v -0.6 0.1 0.6
v 0.6 -0.3 0.6
v 0.6 -0.1 0.6
v 0.6 0.1 0.6
v -0.4 0.1 0.4
v -0.4 0.3 0.4
v -0.4 0.5 0.4
v 0.4 0.1 0.4
v 0.4 0.3 0.4
v 0.4 0.5 0.4
v -0.3 -1 0.3
v -0.3 -0.8 0.3
v -0.3 -0.7 0.3
v 0.3 -1 0.3
v 0.3 -0.8 0.3
v 0.3 -0.7 0.3
v -0.2 0.5 0.2
v -0.2 0.7 0.2
v -0.2 0.9 0.2
v 0.2 0.5 0.2
v 0.2 0.7 0.2
v 0.2 0.9 0.2
v -0.2 0.5 -0.2
v -0.2 0.7 -0.2
v -0.2 0.9 -0.2
v 0.2 0.5 -0.2
v 0.2 0.7 -0.2
v 0.2 0.9 -0.2
v -0.3 -1 -0.3
v -0.3 -0.8 -0.3
v -0.3 -0.7 -0.3
v 0.3 -1 -0.3
v 0.3 -0.8 -0.3
v 0.3 -0.7 -0.3
v -0.4 0.1 -0.4
v -0.4 0.3 -0.4
v -0.4 0.5 -0.4
v 0.4 0.1 -0.4
v 0.4 0.3 -0.4
v 0.4 0.5 -0.4
v -0.6 -0.3 -0.6
v -0.6 -0.1 -0.6
v -0.6 0.1 -0.6
v 0.6 -0.3 -0.6
v 0.6 -0.1 -0.6
v 0.6 0.1 -0.6
v -0.8 -0.7 -0.8
v -0.8 -0.5 -0.8
v -0.8 -0.3 -0.8
v 0.8 -0.7 -0.8
v 0.8 -0.5 -0.8
v 0.8 -0.3 -0.8
v -0.3 -1 0.3
v 0.3 -1 0.3
v -0.3 -1 -0.3
v 0.3 -1 -0.3
v -0.8 -0.7 0.8
v 0.8 -0.7 0.8
v -0.3 -0.7 0.3
v 0.3 -0.7 0.3
v -0.3 -0.7 -0.3
v 0.3 -0.7 -0.3
v -0.8 -0.7 -0.8
v 0.8 -0.7 -0.8
v -0.8 -0.3 0.8
v 0.8 -0.3 0.8
v -0.6 -0.3 0.6
v 0.6 -0.3 0.6
v -0.6 -0.3 -0.6
v 0.6 -0.3 -0.6
v -0.8 -0.3 -0.8
v 0.8 -0.3 -0.8
v -0.6 0.1 0.6
v 0.6 0.1 0.6
v -0.4 0.1 0.4
v 0.4 0.1 0.4
v -0.4 0.1 -0.4
v 0.4 0.1 -0.4
v -0.6 0.1 -0.6
v 0.6 0.1 -0.6
v -0.4 0.5 0.4
v 0.4 0.5 0.4
v -0.2 0.5 0.2
v 0.2 0.5 0.2
v -0.2 0.5 -0.2
v 0.2 0.5 -0.2
v -0.4 0.5 -0.4
v 0.4 0.5 -0.4
v -0.2 0.9 0.2
v 0.2 0.9 0.2
v -0.2 0.9 -0.2
v 0.2 0.9 -0.2

# faces
f 3/3/1 2/3/1 1/3/1
f 4/3/1 2/3/1 3/3/1
f 5/4/1 4/4/1 3/4/1
f 6/4/1 4/4/1 5/4/1
f 9/3/1 8/3/1 7/3/1
f 10/3/1 8/3/1 9/3/1
f 11/4/1 10/4/1 9/4/1
f 12/4/1 10/4/1 11/4/1
f 15/3/1 14/3/1 13/3/1
f 16/3/1 14/3/1 15/3/1
f 17/4/1 16/4/1 15/4/1
f 18/4/1 16/4/1 17/4/1
f 21/1/1 20/1/1 19/1/1
f 22/1/1 20/1/1 21/1/1
f 23/2/1 22/2/1 21/2/1
f 24/2/1 22/2/1 23/2/1
f 27/3/1 26/3/1 25/3/1
f 28/3/1 26/3/1 27/3/1
f 29/4/1 28/4/1 27/4/1
f 30/4/1 28/4/1 29/4/1
f 31/3/2 32/3/2 33/3/2
f 33/3/2 32/3/2 34/3/2
f 33/4/2 34/4/2 35/4/2
f 35/4/2 34/4/2 36/4/2
f 37/1/2 38/1/2 39/1/2
f 39/1/2 38/1/2 40/1/2
f 39/2/2 40/2/2 41/2/2
f 41/2/2 40/2/2 42/2/2
f 43/3/2 44/3/2 45/3/2
f 45/3/2 44/3/2 46/3/2
f 45/4/2 46/4/2 47/4/2
f 47/4/2 46/4/2 48/4/2
f 49/3/2 50/3/2 51/3/2
f 51/3/2 50/3/2 52/3/2
f 51/4/2 52/4/2 53/4/2
f 53/4/2 52/4/2 54/4/2
f 55/3/2 56/3/2 57/3/2
f 57/3/2 56/3/2 58/3/2
f 57/4/2 58/4/2 59/4/2
f 59/4/2 58/4/2 60/4/2
f 64/3/3 62/3/3 61/3/3
f 65/4/3 63/4/3 62/4/3
f 65/3/3 62/3/3 64/3/3
f 66/4/3 63/4/3 65/4/3
f 70/3/3 68/3/3 67/3/3
f 71/4/3 69/4/3 68/4/3
f 71/3/3 68/3/3 70/3/3
f 72/4/3 69/4/3 71/4/3
f 76/3/3 74/3/3 73/3/3
f 77/4/3 75/4/3 74/4/3
f 77/3/3 74/3/3 76/3/3
f 78/4/3 75/4/3 77/4/3
f 82/1/3 80/1/3 79/1/3
f 83/2/3 81/2/3 80/2/3
f 83/1/3 80/1/3 82/1/3
f 84/2/3 81/2/3 83/2/3
f 88/3/3 86/3/3 85/3/3
f 89/4/3 87/4/3 86/4/3
f 89/3/3 86/3/3 88/3/3
f 90/4/3 87/4/3 89/4/3
f 91/3/4 92/3/4 94/3/4
f 92/4/4 93/4/4 95/4/4
f 94/3/4 92/3/4 95/3/4
f 95/4/4 93/4/4 96/4/4
f 97/1/4 98/1/4 100/1/4
f 98/2/4 99/2/4 101/2/4
f 100/1/4 98/1/4 101/1/4
f 101/2/4 99/2/4 102/2/4
f 103/3/4 104/3/4 106/3/4
f 104/4/4 105/4/4 107/4/4
f 106/3/4 104/3/4 107/3/4
f 107/4/4 105/4/4 108/4/4
f 109/3/4 110/3/4 112/3/4
f 110/4/4 111/4/4 113/4/4
f 112/3/4 110/3/4 113/3/4
f 113/4/4 111/4/4 114/4/4
f 115/3/4 116/3/4 118/3/4
f 116/4/4 117/4/4 119/4/4
f 118/3/4 116/3/4 119/3/4
f 119/4/4 117/4/4 120/4/4
f 123/1/5 122/1/5 121/1/5
f 124/1/5 122/1/5 123/1/5
f 127/3/5 126/3/5 125/3/5
f 128/3/5 126/3/5 127/3/5
f 129/3/5 127/3/5 125/3/5
f 130/3/5 126/3/5 128/3/5
f 131/3/5 129/3/5 125/3/5
f 131/3/5 130/3/5 129/3/5
f 132/3/5 126/3/5 130/3/5
f 132/3/5 130/3/5 131/3/5
f 133/4/6 134/4/6 135/4/6
f 135/4/6 134/4/6 136/4/6
f 133/4/6 135/4/6 137/4/6
f 136/4/6 134/4/6 138/4/6
f 133/4/6 137/4/6 139/4/6
f 137/4/6 138/4/6 139/4/6
f 138/4/6 134/4/6 140/4/6
f 139/4/6 138/4/6 140/4/6
f 141/4/6 142/4/6 143/4/6
f 143/4/6 142/4/6 144/4/6
f 141/4/6 143/4/6 145/4/6
f 144/4/6 142/4/6 146/4/6
f 141/4/6 145/4/6 147/4/6
f 145/4/6 146/4/6 147/4/6
f 146/4/6 142/4/6 148/4/6
f 147/4/6 146/4/6 148/4/6
f 149/4/6 150/4/6 151/4/6
f 151/4/6 150/4/6 152/4/6
f 149/4/6 151/4/6 153/4/6
f 152/4/6 150/4/6 154/4/6
f 149/4/6 153/4/6 155/4/6
f 153/4/6 154/4/6 155/4/6
f 154/4/6 150/4/6 156/4/6
f 155/4/6 154/4/6 156/4/6
f 157/4/6 158/4/6 159/4/6
f 159/4/6 158/4/6 160/4/6
