# MagicaVoxel @ Ephtracy

# group
o 

# material
mtllib CristmasTreeColorfull.mtl
usemtl palette

# normals
vn -1 0 0
vn 1 0 0
vn 0 0 1
vn 0 0 -1
vn 0 -1 0
vn 0 1 0

# texcoords
vt 0.970703 0.5
vt 0.974609 0.5
vt 0.978516 0.5
vt 0.982422 0.5
vt 0.986328 0.5
vt 0.990234 0.5
vt 0.994141 0.5

# verts
v -0.8 -0.7 0.8
v -0.8 -0.7 -0.8
v -0.8 -0.5 0.8
v -0.8 -0.5 -0.8
v -0.8 -0.3 0.8
v -0.8 -0.3 0.5
v -0.8 -0.3 0.3
v -0.8 -0.3 -0.2
v -0.8 -0.3 -0.4
v -0.8 -0.3 -0.8
v -0.8 -0.2 0.5
v -0.8 -0.2 0.3
v -0.8 -0.2 -0.2
v -0.8 -0.2 -0.4
v -0.6 -0.3 0.6
v -0.6 -0.3 0.5
v -0.6 -0.3 0.3
v -0.6 -0.3 -0.2
v -0.6 -0.3 -0.4
v -0.6 -0.3 -0.6
v -0.6 -0.2 0.5
v -0.6 -0.2 0.3
v -0.6 -0.2 -0.2
v -0.6 -0.2 -0.4
v -0.6 -0.1 0.6
v -0.6 -0.1 -0.6
v -0.6 0.1 0.6
v -0.6 0.1 0.3
v -0.6 0.1 0.1
v -0.6 0.1 -0.6
v -0.6 0.2 0.3
v -0.6 0.2 0.1
v -0.4 -0.3 0.8
v -0.4 -0.3 0.6
v -0.4 -0.2 0.8
v -0.4 -0.2 0.6
v -0.4 0.1 0.4
v -0.4 0.1 0.3
v -0.4 0.1 0.1
v -0.4 0.1 -0.4
v -0.4 0.2 0.3
v -0.4 0.2 0.1
v -0.4 0.3 0.4
v -0.4 0.3 -0.4
v -0.4 0.5 0.4
v -0.4 0.5 -0.4
v -0.3 -1 0.3
v -0.3 -1 -0.3
v -0.3 -0.8 0.3
v -0.3 -0.8 -0.3
v -0.3 -0.7 0.3
v -0.3 -0.7 -0.3
v -0.3 -0.3 -0.6
v -0.3 -0.3 -0.8
v -0.3 -0.2 -0.6
v -0.3 -0.2 -0.8
v -0.2 0.5 0.2
v -0.2 0.5 -0.2
v -0.2 0.5 -0.4
v -0.2 0.6 -0.2
v -0.2 0.6 -0.4
v -0.2 0.7 0.2
v -0.2 0.7 -0.2
v -0.2 0.9 0.2
v -0.2 0.9 -0.2
v -0.1 0.5 0.4
v -0.1 0.5 0.2
v -0.1 0.6 0.4
v -0.1 0.6 0.2
v 5.96046e-008 0.1 0.6
v 5.96046e-008 0.1 0.4
v 5.96046e-008 0.2 0.6
v 5.96046e-008 0.2 0.4
v 0.1 0.1 -0.4
v 0.1 0.1 -0.6
v 0.1 0.2 -0.4
v 0.1 0.2 -0.6
v 0.2 -0.3 0.8
v 0.2 -0.3 0.6
v 0.2 -0.2 0.8
v 0.2 -0.2 0.6
v 0.4 -0.3 -0.6
v 0.4 -0.3 -0.8
v 0.4 -0.2 -0.6
v 0.4 -0.2 -0.8
v -0.2 -0.3 0.8
v -0.2 -0.3 0.6
v -0.2 -0.2 0.8
v -0.2 -0.2 0.6
v -0.1 -0.3 -0.6
v -0.1 -0.3 -0.8
v -0.1 -0.2 -0.6
v -0.1 -0.2 -0.8
v 5.96046e-008 0.5 -0.2
v 5.96046e-008 0.5 -0.4
v 5.96046e-008 0.6 -0.2
v 5.96046e-008 0.6 -0.4
v 0.1 0.5 0.4
v 0.1 0.5 0.2
v 0.1 0.6 0.4
v 0.1 0.6 0.2
v 0.2 0.1 0.6
v 0.2 0.1 0.4
v 0.2 0.2 0.6
v 0.2 0.2 0.4
v 0.2 0.5 0.2
v 0.2 0.5 -0.2
v 0.2 0.7 0.2
v 0.2 0.7 -0.2
v 0.2 0.9 0.2
v 0.2 0.9 -0.2
v 0.3 -1 0.3
v 0.3 -1 -0.3
v 0.3 -0.8 0.3
v 0.3 -0.8 -0.3
v 0.3 -0.7 0.3
v 0.3 -0.7 -0.3
v 0.3 0.1 -0.4
v 0.3 0.1 -0.6
v 0.3 0.2 -0.4
v 0.3 0.2 -0.6
v 0.4 -0.3 0.8
v 0.4 -0.3 0.6
v 0.4 -0.2 0.8
v 0.4 -0.2 0.6
v 0.4 0.1 0.4
v 0.4 0.1 -5.96046e-008
v 0.4 0.1 -0.2
v 0.4 0.1 -0.4
v 0.4 0.2 -5.96046e-008
v 0.4 0.2 -0.2
v 0.4 0.3 0.4
v 0.4 0.3 -0.4
v 0.4 0.5 0.4
v 0.4 0.5 -0.4
v 0.6 -0.3 0.6
v 0.6 -0.3 0.4
v 0.6 -0.3 0.2
v 0.6 -0.3 -0.6
v 0.6 -0.3 -0.8
v 0.6 -0.2 0.4
v 0.6 -0.2 0.2
v 0.6 -0.2 -0.6
v 0.6 -0.2 -0.8
v 0.6 -0.1 0.6
v 0.6 -0.1 -0.6
v 0.6 0.1 0.6
v 0.6 0.1 -5.96046e-008
v 0.6 0.1 -0.2
v 0.6 0.1 -0.6
v 0.6 0.2 -5.96046e-008
v 0.6 0.2 -0.2
v 0.8 -0.7 0.8
v 0.8 -0.7 -0.8
v 0.8 -0.5 0.8
v 0.8 -0.5 -0.8
v 0.8 -0.3 0.8
v 0.8 -0.3 0.4
v 0.8 -0.3 0.2
v 0.8 -0.3 -0.8
v 0.8 -0.2 0.4
v 0.8 -0.2 0.2
v -0.8 -0.7 0.8
v -0.8 -0.5 0.8
v -0.8 -0.3 0.8
v -0.4 -0.3 0.8
v -0.4 -0.2 0.8
v -0.2 -0.3 0.8
v -0.2 -0.2 0.8
v 0.2 -0.3 0.8
v 0.2 -0.2 0.8
v 0.4 -0.3 0.8
v 0.4 -0.2 0.8
v 0.8 -0.7 0.8
v 0.8 -0.5 0.8
v 0.8 -0.3 0.8
v -0.6 -0.3 0.6
v -0.6 -0.1 0.6
v -0.6 0.1 0.6
v -0.4 -0.3 0.6
v -0.4 -0.2 0.6
v -0.2 -0.3 0.6
v -0.2 -0.2 0.6
v 5.96046e-008 0.1 0.6
v 5.96046e-008 0.2 0.6
v 0.2 -0.3 0.6
v 0.2 -0.2 0.6
v 0.2 0.1 0.6
v 0.2 0.2 0.6
v 0.4 -0.3 0.6
v 0.4 -0.2 0.6
v 0.6 -0.3 0.6
v 0.6 -0.1 0.6
v 0.6 0.1 0.6
v -0.8 -0.3 0.5
v -0.8 -0.2 0.5
v -0.6 -0.3 0.5
v -0.6 -0.2 0.5
v -0.4 0.1 0.4
v -0.4 0.3 0.4
v -0.4 0.5 0.4
v -0.1 0.5 0.4
v -0.1 0.6 0.4
v 5.96046e-008 0.1 0.4
v 5.96046e-008 0.2 0.4
v 0.1 0.5 0.4
v 0.1 0.6 0.4
v 0.2 0.1 0.4
v 0.2 0.2 0.4
v 0.4 0.1 0.4
v 0.4 0.3 0.4
v 0.4 0.5 0.4
v 0.6 -0.3 0.4
v 0.6 -0.2 0.4
v 0.8 -0.3 0.4
v 0.8 -0.2 0.4
v -0.6 0.1 0.3
v -0.6 0.2 0.3
v -0.4 0.1 0.3
v -0.4 0.2 0.3
v -0.3 -1 0.3
v -0.3 -0.8 0.3
v -0.3 -0.7 0.3
v 0.3 -1 0.3
v 0.3 -0.8 0.3
v 0.3 -0.7 0.3
v -0.2 0.5 0.2
v -0.2 0.7 0.2
v -0.2 0.9 0.2
v -0.1 0.5 0.2
v -0.1 0.6 0.2
v 0.1 0.5 0.2
v 0.1 0.6 0.2
v 0.2 0.5 0.2
v 0.2 0.7 0.2
v 0.2 0.9 0.2
v 0.4 0.1 -5.96046e-008
v 0.4 0.2 -5.96046e-008
v 0.6 0.1 -5.96046e-008
v 0.6 0.2 -5.96046e-008
v -0.8 -0.3 -0.2
v -0.8 -0.2 -0.2
v -0.6 -0.3 -0.2
v -0.6 -0.2 -0.2
v -0.8 -0.3 0.3
v -0.8 -0.2 0.3
v -0.6 -0.3 0.3
v -0.6 -0.2 0.3
v 0.6 -0.3 0.2
v 0.6 -0.2 0.2
v 0.8 -0.3 0.2
v 0.8 -0.2 0.2
v -0.6 0.1 0.1
v -0.6 0.2 0.1
v -0.4 0.1 0.1
v -0.4 0.2 0.1
v -0.2 0.6 -0.2
v -0.2 0.7 -0.2
v -0.2 0.9 -0.2
v 5.96046e-008 0.5 -0.2
v 5.96046e-008 0.6 -0.2
v 0.2 0.5 -0.2
v 0.2 0.7 -0.2
v 0.2 0.9 -0.2
v 0.4 0.1 -0.2
v 0.4 0.2 -0.2
v 0.6 0.1 -0.2
v 0.6 0.2 -0.2
v -0.3 -1 -0.3
v -0.3 -0.8 -0.3
v -0.3 -0.7 -0.3
v 0.3 -1 -0.3
v 0.3 -0.8 -0.3
v 0.3 -0.7 -0.3
v -0.8 -0.3 -0.4
v -0.8 -0.2 -0.4
v -0.6 -0.3 -0.4
v -0.6 -0.2 -0.4
v -0.4 0.1 -0.4
v -0.4 0.3 -0.4
v -0.4 0.5 -0.4
v -0.2 0.5 -0.4
v -0.2 0.6 -0.4
v 5.96046e-008 0.5 -0.4
v 5.96046e-008 0.6 -0.4
v 0.1 0.1 -0.4
v 0.1 0.2 -0.4
v 0.3 0.1 -0.4
v 0.3 0.2 -0.4
v 0.4 0.1 -0.4
v 0.4 0.3 -0.4
v 0.4 0.5 -0.4
v -0.6 -0.3 -0.6
v -0.6 -0.1 -0.6
v -0.6 0.1 -0.6
v -0.3 -0.3 -0.6
v -0.3 -0.2 -0.6
v -0.1 -0.3 -0.6
v -0.1 -0.2 -0.6
v 0.1 0.1 -0.6
v 0.1 0.2 -0.6
v 0.3 0.1 -0.6
v 0.3 0.2 -0.6
v 0.4 -0.3 -0.6
v 0.4 -0.2 -0.6
v 0.6 -0.2 -0.6
v 0.6 -0.1 -0.6
v 0.6 0.1 -0.6
v -0.8 -0.7 -0.8
v -0.8 -0.5 -0.8
v -0.8 -0.3 -0.8
v -0.3 -0.3 -0.8
v -0.3 -0.2 -0.8
v -0.1 -0.3 -0.8
v -0.1 -0.2 -0.8
v 0.4 -0.3 -0.8
v 0.4 -0.2 -0.8
v 0.6 -0.3 -0.8
v 0.6 -0.2 -0.8
v 0.8 -0.7 -0.8
v 0.8 -0.5 -0.8
v 0.8 -0.3 -0.8
v -0.3 -1 0.3
v 0.3 -1 0.3
v -0.3 -1 -0.3
v 0.3 -1 -0.3
v -0.8 -0.7 0.8
v 0.8 -0.7 0.8
v -0.3 -0.7 0.3
v 0.3 -0.7 0.3
v -0.3 -0.7 -0.3
v 0.3 -0.7 -0.3
v -0.8 -0.7 -0.8
v 0.8 -0.7 -0.8
v -0.8 -0.3 0.8
v -0.4 -0.3 0.8
v -0.2 -0.3 0.8
v 0.2 -0.3 0.8
v 0.4 -0.3 0.8
v 0.8 -0.3 0.8
v -0.6 -0.3 0.6
v -0.4 -0.3 0.6
v -0.2 -0.3 0.6
v 0.2 -0.3 0.6
v 0.4 -0.3 0.6
v 0.6 -0.3 0.6
v -0.8 -0.3 0.5
v -0.6 -0.3 0.5
v 0.6 -0.3 0.4
v 0.8 -0.3 0.4
v -0.8 -0.3 0.3
v -0.6 -0.3 0.3
v 0.6 -0.3 0.2
v 0.8 -0.3 0.2
v -0.8 -0.3 -0.2
v -0.6 -0.3 -0.2
v -0.8 -0.3 -0.4
v -0.6 -0.3 -0.4
v -0.6 -0.3 -0.6
v -0.3 -0.3 -0.6
v -0.1 -0.3 -0.6
v 0.4 -0.3 -0.6
v 0.6 -0.3 -0.6
v -0.8 -0.3 -0.8
v -0.3 -0.3 -0.8
v -0.1 -0.3 -0.8
v 0.4 -0.3 -0.8
v 0.6 -0.3 -0.8
v 0.8 -0.3 -0.8
v -0.4 -0.2 0.8
v -0.2 -0.2 0.8
v 0.2 -0.2 0.8
v 0.4 -0.2 0.8
v -0.4 -0.2 0.6
v -0.2 -0.2 0.6
v 0.2 -0.2 0.6
v 0.4 -0.2 0.6
v -0.8 -0.2 0.5
v -0.6 -0.2 0.5
v 0.6 -0.2 0.4
v 0.8 -0.2 0.4
v -0.8 -0.2 0.3
v -0.6 -0.2 0.3
v 0.6 -0.2 0.2
v 0.8 -0.2 0.2
v -0.8 -0.2 -0.2
v -0.6 -0.2 -0.2
v -0.8 -0.2 -0.4
v -0.6 -0.2 -0.4
v -0.3 -0.2 -0.6
v -0.1 -0.2 -0.6
v 0.4 -0.2 -0.6
v 0.6 -0.2 -0.6
v -0.3 -0.2 -0.8
v -0.1 -0.2 -0.8
v 0.4 -0.2 -0.8
v 0.6 -0.2 -0.8
v -0.6 0.1 0.6
v 5.96046e-008 0.1 0.6
v 0.2 0.1 0.6
v 0.6 0.1 0.6
v -0.4 0.1 0.4
v 5.96046e-008 0.1 0.4
v 0.2 0.1 0.4
v 0.4 0.1 0.4
v -0.6 0.1 0.3
v -0.4 0.1 0.3
v -0.6 0.1 0.1
v -0.4 0.1 0.1
v 0.4 0.1 -5.96046e-008
v 0.6 0.1 -5.96046e-008
v 0.4 0.1 -0.2
v 0.6 0.1 -0.2
v -0.4 0.1 -0.4
v 0.1 0.1 -0.4
v 0.3 0.1 -0.4
v 0.4 0.1 -0.4
v -0.6 0.1 -0.6
v 0.1 0.1 -0.6
v 0.3 0.1 -0.6
v 0.6 0.1 -0.6
v 5.96046e-008 0.2 0.6
v 0.2 0.2 0.6
v 5.96046e-008 0.2 0.4
v 0.2 0.2 0.4
v -0.6 0.2 0.3
v -0.4 0.2 0.3
v -0.6 0.2 0.1
v -0.4 0.2 0.1
v 0.4 0.2 -5.96046e-008
v 0.6 0.2 -5.96046e-008
v 0.4 0.2 -0.2
v 0.6 0.2 -0.2
v 0.1 0.2 -0.4
v 0.3 0.2 -0.4
v 0.1 0.2 -0.6
v 0.3 0.2 -0.6
v -0.4 0.5 0.4
v -0.1 0.5 0.4
v 0.1 0.5 0.4
v 0.4 0.5 0.4
v -0.2 0.5 0.2
v -0.1 0.5 0.2
v 0.1 0.5 0.2
v 0.2 0.5 0.2
v -0.2 0.5 -0.2
v 5.96046e-008 0.5 -0.2
v 0.2 0.5 -0.2
v -0.4 0.5 -0.4
v -0.2 0.5 -0.4
v 5.96046e-008 0.5 -0.4
v 0.4 0.5 -0.4
v -0.1 0.6 0.4
v 0.1 0.6 0.4
v -0.1 0.6 0.2
v 0.1 0.6 0.2
v -0.2 0.6 -0.2
v 5.96046e-008 0.6 -0.2
v -0.2 0.6 -0.4
v 5.96046e-008 0.6 -0.4
v -0.2 0.9 0.2
v 0.2 0.9 0.2
v -0.2 0.9 -0.2
v 0.2 0.9 -0.2

# faces
f 3/3/1 2/3/1 1/3/1
f 4/3/1 2/3/1 3/3/1
f 5/4/1 4/4/1 3/4/1
f 6/4/1 4/4/1 5/4/1
f 7/4/1 4/4/1 6/4/1
f 8/4/1 4/4/1 7/4/1
f 9/4/1 4/4/1 8/4/1
f 10/4/1 4/4/1 9/4/1
f 11/7/1 7/7/1 6/7/1
f 12/7/1 7/7/1 11/7/1
f 13/6/1 9/6/1 8/6/1
f 14/6/1 9/6/1 13/6/1
f 21/3/1 16/3/1 15/3/1
f 22/3/1 18/3/1 17/3/1
f 23/3/1 18/3/1 22/3/1
f 24/3/1 20/3/1 19/3/1
f 25/3/1 23/3/1 22/3/1
f 25/3/1 24/3/1 23/3/1
f 25/3/1 21/3/1 15/3/1
f 25/3/1 22/3/1 21/3/1
f 26/3/1 20/3/1 24/3/1
f 26/3/1 24/3/1 25/3/1
f 27/4/1 26/4/1 25/4/1
f 28/4/1 26/4/1 27/4/1
f 29/4/1 26/4/1 28/4/1
f 30/4/1 26/4/1 29/4/1
f 31/5/1 29/5/1 28/5/1
f 32/5/1 29/5/1 31/5/1
f 35/6/1 34/6/1 33/6/1
f 36/6/1 34/6/1 35/6/1
f 41/3/1 38/3/1 37/3/1
f 42/3/1 40/3/1 39/3/1
f 43/3/1 41/3/1 37/3/1
f 43/3/1 42/3/1 41/3/1
f 44/3/1 40/3/1 42/3/1
f 44/3/1 42/3/1 43/3/1
f 45/4/1 44/4/1 43/4/1
f 46/4/1 44/4/1 45/4/1
f 49/1/1 48/1/1 47/1/1
f 50/1/1 48/1/1 49/1/1
f 51/2/1 50/2/1 49/2/1
f 52/2/1 50/2/1 51/2/1
f 55/5/1 54/5/1 53/5/1
f 56/5/1 54/5/1 55/5/1
f 60/3/1 58/3/1 57/3/1
f 60/7/1 59/7/1 58/7/1
f 61/7/1 59/7/1 60/7/1
f 62/3/1 60/3/1 57/3/1
f 63/3/1 60/3/1 62/3/1
f 64/4/1 63/4/1 62/4/1
f 65/4/1 63/4/1 64/4/1
f 68/6/1 67/6/1 66/6/1
f 69/6/1 67/6/1 68/6/1
f 72/7/1 71/7/1 70/7/1
f 73/7/1 71/7/1 72/7/1
f 76/6/1 75/6/1 74/6/1
f 77/6/1 75/6/1 76/6/1
f 80/5/1 79/5/1 78/5/1
f 81/5/1 79/5/1 80/5/1
f 84/7/1 83/7/1 82/7/1
f 85/7/1 83/7/1 84/7/1
f 86/6/2 87/6/2 88/6/2
f 88/6/2 87/6/2 89/6/2
f 90/5/2 91/5/2 92/5/2
f 92/5/2 91/5/2 93/5/2
f 94/7/2 95/7/2 96/7/2
f 96/7/2 95/7/2 97/7/2
f 98/6/2 99/6/2 100/6/2
f 100/6/2 99/6/2 101/6/2
f 102/7/2 103/7/2 104/7/2
f 104/7/2 103/7/2 105/7/2
f 106/3/2 107/3/2 108/3/2
f 108/3/2 107/3/2 109/3/2
f 108/4/2 109/4/2 110/4/2
f 110/4/2 109/4/2 111/4/2
f 112/1/2 113/1/2 114/1/2
f 114/1/2 113/1/2 115/1/2
f 114/2/2 115/2/2 116/2/2
f 116/2/2 115/2/2 117/2/2
f 118/6/2 119/6/2 120/6/2
f 120/6/2 119/6/2 121/6/2
f 122/5/2 123/5/2 124/5/2
f 124/5/2 123/5/2 125/5/2
f 126/3/2 127/3/2 130/3/2
f 128/3/2 129/3/2 131/3/2
f 126/3/2 130/3/2 132/3/2
f 130/3/2 131/3/2 132/3/2
f 131/3/2 129/3/2 133/3/2
f 132/3/2 131/3/2 133/3/2
f 132/4/2 133/4/2 134/4/2
f 134/4/2 133/4/2 135/4/2
f 136/3/2 137/3/2 141/3/2
f 138/3/2 139/3/2 142/3/2
f 139/7/2 140/7/2 143/7/2
f 142/3/2 139/3/2 143/3/2
f 143/7/2 140/7/2 144/7/2
f 141/3/2 142/3/2 145/3/2
f 136/3/2 141/3/2 145/3/2
f 142/3/2 143/3/2 145/3/2
f 145/3/2 143/3/2 146/3/2
f 145/4/2 146/4/2 147/4/2
f 147/4/2 146/4/2 148/4/2
f 148/4/2 146/4/2 149/4/2
f 149/4/2 146/4/2 150/4/2
f 148/5/2 149/5/2 151/5/2
f 151/5/2 149/5/2 152/5/2
f 153/3/2 154/3/2 155/3/2
f 155/3/2 154/3/2 156/3/2
f 155/4/2 156/4/2 157/4/2
f 157/4/2 156/4/2 158/4/2
f 158/4/2 156/4/2 159/4/2
f 159/4/2 156/4/2 160/4/2
f 158/6/2 159/6/2 161/6/2
f 161/6/2 159/6/2 162/6/2
f 166/4/3 165/4/3 164/4/3
f 168/4/3 166/4/3 164/4/3
f 168/6/3 167/6/3 166/6/3
f 169/6/3 167/6/3 168/6/3
f 170/4/3 168/4/3 164/4/3
f 172/4/3 170/4/3 164/4/3
f 172/5/3 171/5/3 170/5/3
f 173/5/3 171/5/3 172/5/3
f 174/3/3 164/3/3 163/3/3
f 175/4/3 172/4/3 164/4/3
f 175/3/3 164/3/3 174/3/3
f 176/4/3 172/4/3 175/4/3
f 180/3/3 178/3/3 177/3/3
f 181/3/3 178/3/3 180/3/3
f 183/3/3 178/3/3 181/3/3
f 184/4/3 179/4/3 178/4/3
f 186/3/3 183/3/3 182/3/3
f 187/3/3 178/3/3 183/3/3
f 187/3/3 183/3/3 186/3/3
f 188/7/3 185/7/3 184/7/3
f 188/4/3 184/4/3 178/4/3
f 189/7/3 185/7/3 188/7/3
f 191/3/3 178/3/3 187/3/3
f 192/3/3 191/3/3 190/3/3
f 193/4/3 188/4/3 178/4/3
f 193/3/3 191/3/3 192/3/3
f 193/3/3 178/3/3 191/3/3
f 194/4/3 188/4/3 193/4/3
f 197/7/3 196/7/3 195/7/3
f 198/7/3 196/7/3 197/7/3
f 202/4/3 201/4/3 200/4/3
f 204/3/3 200/3/3 199/3/3
f 205/3/3 200/3/3 204/3/3
f 206/6/3 203/6/3 202/6/3
f 206/4/3 202/4/3 200/4/3
f 207/6/3 203/6/3 206/6/3
f 209/3/3 200/3/3 205/3/3
f 210/3/3 209/3/3 208/3/3
f 211/4/3 206/4/3 200/4/3
f 211/3/3 209/3/3 210/3/3
f 211/3/3 200/3/3 209/3/3
f 212/4/3 206/4/3 211/4/3
f 215/6/3 214/6/3 213/6/3
f 216/6/3 214/6/3 215/6/3
f 219/5/3 218/5/3 217/5/3
f 220/5/3 218/5/3 219/5/3
f 224/1/3 222/1/3 221/1/3
f 225/2/3 223/2/3 222/2/3
f 225/1/3 222/1/3 224/1/3
f 226/2/3 223/2/3 225/2/3
f 230/3/3 228/3/3 227/3/3
f 231/3/3 228/3/3 230/3/3
f 233/3/3 228/3/3 231/3/3
f 234/3/3 233/3/3 232/3/3
f 235/4/3 229/4/3 228/4/3
f 235/3/3 233/3/3 234/3/3
f 235/3/3 228/3/3 233/3/3
f 236/4/3 229/4/3 235/4/3
f 239/5/3 238/5/3 237/5/3
f 240/5/3 238/5/3 239/5/3
f 243/6/3 242/6/3 241/6/3
f 244/6/3 242/6/3 243/6/3
f 245/7/4 246/7/4 247/7/4
f 247/7/4 246/7/4 248/7/4
f 249/6/4 250/6/4 251/6/4
f 251/6/4 250/6/4 252/6/4
f 253/5/4 254/5/4 255/5/4
f 255/5/4 254/5/4 256/5/4
f 257/3/4 258/3/4 261/3/4
f 260/3/4 261/3/4 262/3/4
f 258/4/4 259/4/4 263/4/4
f 262/3/4 261/3/4 263/3/4
f 261/3/4 258/3/4 263/3/4
f 263/4/4 259/4/4 264/4/4
f 265/5/4 266/5/4 267/5/4
f 267/5/4 266/5/4 268/5/4
f 269/1/4 270/1/4 272/1/4
f 270/2/4 271/2/4 273/2/4
f 272/1/4 270/1/4 273/1/4
f 273/2/4 271/2/4 274/2/4
f 275/6/4 276/6/4 277/6/4
f 277/6/4 276/6/4 278/6/4
f 280/4/4 281/4/4 282/4/4
f 280/4/4 282/4/4 284/4/4
f 282/7/4 283/7/4 284/7/4
f 284/7/4 283/7/4 285/7/4
f 279/3/4 280/3/4 286/3/4
f 286/3/4 280/3/4 287/3/4
f 287/3/4 280/3/4 289/3/4
f 288/3/4 289/3/4 290/3/4
f 280/4/4 284/4/4 291/4/4
f 290/3/4 289/3/4 291/3/4
f 289/3/4 280/3/4 291/3/4
f 291/4/4 284/4/4 292/4/4
f 293/3/4 294/3/4 296/3/4
f 296/3/4 294/3/4 297/3/4
f 297/3/4 294/3/4 299/3/4
f 294/4/4 295/4/4 300/4/4
f 294/4/4 300/4/4 302/4/4
f 300/6/4 301/6/4 302/6/4
f 302/6/4 301/6/4 303/6/4
f 298/3/4 299/3/4 304/3/4
f 299/3/4 294/3/4 305/3/4
f 304/3/4 299/3/4 305/3/4
f 305/3/4 294/3/4 306/3/4
f 294/4/4 302/4/4 307/4/4
f 306/3/4 294/3/4 307/3/4
f 307/4/4 302/4/4 308/4/4
f 310/4/4 311/4/4 312/4/4
f 310/4/4 312/4/4 314/4/4
f 312/5/4 313/5/4 314/5/4
f 314/5/4 313/5/4 315/5/4
f 310/4/4 314/4/4 316/4/4
f 310/4/4 316/4/4 318/4/4
f 316/7/4 317/7/4 318/7/4
f 318/7/4 317/7/4 319/7/4
f 309/3/4 310/3/4 320/3/4
f 310/4/4 318/4/4 321/4/4
f 320/3/4 310/3/4 321/3/4
f 321/4/4 318/4/4 322/4/4
f 325/1/5 324/1/5 323/1/5
f 326/1/5 324/1/5 325/1/5
f 329/3/5 328/3/5 327/3/5
f 330/3/5 328/3/5 329/3/5
f 331/3/5 329/3/5 327/3/5
f 332/3/5 328/3/5 330/3/5
f 333/3/5 331/3/5 327/3/5
f 333/3/5 332/3/5 331/3/5
f 334/3/5 328/3/5 332/3/5
f 334/3/5 332/3/5 333/3/5
f 335/4/6 336/4/6 341/4/6
f 341/4/6 336/4/6 342/4/6
f 337/4/6 338/4/6 343/4/6
f 343/4/6 338/4/6 344/4/6
f 339/4/6 340/4/6 345/4/6
f 345/4/6 340/4/6 346/4/6
f 335/4/6 341/4/6 347/4/6
f 347/4/6 341/4/6 348/4/6
f 346/4/6 340/4/6 349/4/6
f 349/4/6 340/4/6 350/4/6
f 351/4/6 352/4/6 355/4/6
f 355/4/6 352/4/6 356/4/6
f 357/4/6 358/4/6 359/4/6
f 353/4/6 354/4/6 363/4/6
f 357/4/6 359/4/6 364/4/6
f 359/4/6 360/4/6 364/4/6
f 364/4/6 360/4/6 365/4/6
f 361/4/6 362/4/6 366/4/6
f 366/4/6 362/4/6 367/4/6
f 363/4/6 354/4/6 368/4/6
f 368/4/6 354/4/6 369/4/6
f 370/6/6 371/6/6 374/6/6
f 374/6/6 371/6/6 375/6/6
f 372/5/6 373/5/6 376/5/6
f 376/5/6 373/5/6 377/5/6
f 378/7/6 379/7/6 382/7/6
f 382/7/6 379/7/6 383/7/6
f 380/6/6 381/6/6 384/6/6
f 384/6/6 381/6/6 385/6/6
f 386/6/6 387/6/6 388/6/6
f 388/6/6 387/6/6 389/6/6
f 390/5/6 391/5/6 394/5/6
f 394/5/6 391/5/6 395/5/6
f 392/7/6 393/7/6 396/7/6
f 396/7/6 393/7/6 397/7/6
f 398/4/6 399/4/6 402/4/6
f 402/4/6 399/4/6 403/4/6
f 400/4/6 401/4/6 404/4/6
f 404/4/6 401/4/6 405/4/6
f 398/4/6 402/4/6 406/4/6
f 406/4/6 402/4/6 407/4/6
f 405/4/6 401/4/6 410/4/6
f 410/4/6 401/4/6 411/4/6
f 408/4/6 409/4/6 414/4/6
f 412/4/6 413/4/6 417/4/6
f 414/4/6 415/4/6 418/4/6
f 408/4/6 414/4/6 418/4/6
f 418/4/6 415/4/6 419/4/6
f 416/4/6 417/4/6 420/4/6
f 417/4/6 413/4/6 421/4/6
f 420/4/6 417/4/6 421/4/6
f 422/7/6 423/7/6 424/7/6
f 424/7/6 423/7/6 425/7/6
f 426/5/6 427/5/6 428/5/6
f 428/5/6 427/5/6 429/5/6
f 430/5/6 431/5/6 432/5/6
f 432/5/6 431/5/6 433/5/6
f 434/6/6 435/6/6 436/6/6
f 436/6/6 435/6/6 437/6/6
f 438/4/6 439/4/6 442/4/6
f 442/4/6 439/4/6 443/4/6
f 440/4/6 441/4/6 444/4/6
f 444/4/6 441/4/6 445/4/6
f 438/4/6 442/4/6 446/4/6
f 445/4/6 441/4/6 448/4/6
f 438/4/6 446/4/6 449/4/6
f 449/4/6 446/4/6 450/4/6
f 447/4/6 448/4/6 451/4/6
f 448/4/6 441/4/6 452/4/6
f 451/4/6 448/4/6 452/4/6
f 453/6/6 454/6/6 455/6/6
f 455/6/6 454/6/6 456/6/6
f 457/7/6 458/7/6 459/7/6
f 459/7/6 458/7/6 460/7/6
f 461/4/6 462/4/6 463/4/6
f 463/4/6 462/4/6 464/4/6
