# MagicaVoxel @ Ephtracy

# group
o 

# material
mtllib chinaBlock.mtl
usemtl palette

# normals
vn -1 0 0
vn 1 0 0
vn 0 0 1
vn 0 0 -1
vn 0 -1 0
vn 0 1 0

# texcoords
vt 0.970703 0.5
vt 0.974609 0.5
vt 0.978516 0.5
vt 0.982422 0.5

# verts
v 0 0.6 0
v 0 0.6 -1.2
v 0 1.3 0
v 0 1.3 -1.2
v 0 1.4 0
v 0 1.4 -1.2
v 0 1.5 0
v 0 1.5 -1.2
v 0 1.8 0
v 0 1.8 -1.2
v 1.2 0.6 0
v 1.2 0.6 -1.2
v 1.2 0.7 -0.4
v 1.2 0.7 -0.5
v 1.2 0.7 -0.7
v 1.2 0.7 -1
v 1.2 0.8 -0.4
v 1.2 0.8 -0.5
v 1.2 0.9 -0.1
v 1.2 0.9 -0.3
v 1.2 1 -0.7
v 1.2 1 -1
v 1.2 1.1 -0.1
v 1.2 1.1 -0.3
v 1.2 1.1 -0.5
v 1.2 1.1 -0.6
v 1.2 1.2 -0.5
v 1.2 1.2 -0.6
v 1.2 1.3 0
v 1.2 1.3 -1.2
v 1.2 1.4 0
v 1.2 1.4 -1.2
v 1.2 1.5 0
v 1.2 1.5 -1.2
v 1.2 1.8 0
v 1.2 1.8 -1.2
v 0 0.6 0
v 0 1.3 0
v 0 1.4 0
v 0 1.5 0
v 0 1.8 0
v 0.2 1 0
v 0.2 1.1 0
v 0.3 1 0
v 0.3 1.1 0
v 0.4 0.9 0
v 0.4 1.1 0
v 0.5 0.7 0
v 0.5 0.8 0
v 0.6 0.7 0
v 0.6 0.8 0
v 0.6 0.9 0
v 0.6 1.1 0
v 0.8 1 0
v 0.8 1.2 0
v 1 1 0
v 1 1.2 0
v 1.2 0.6 0
v 1.2 1.3 0
v 1.2 1.4 0
v 1.2 1.5 0
v 1.2 1.8 0
v 0 0.6 -1.2
v 0 1.3 -1.2
v 0 1.4 -1.2
v 0 1.5 -1.2
v 0 1.8 -1.2
v 1.2 0.6 -1.2
v 1.2 1.3 -1.2
v 1.2 1.4 -1.2
v 1.2 1.5 -1.2
v 1.2 1.8 -1.2
v 0 0.6 0
v 1.2 0.6 0
v 0 0.6 -1.2
v 1.2 0.6 -1.2
v 0 1.8 0
v 1.2 1.8 0
v 0.2 1.8 -0.2
v 1 1.8 -0.2
v 0.3 1.8 -0.3
v 0.9 1.8 -0.3
v 0.3 1.8 -0.9
v 0.9 1.8 -0.9
v 0.2 1.8 -1
v 1 1.8 -1
v 0 1.8 -1.2
v 1.2 1.8 -1.2

# faces
f 3/3/1 2/3/1 1/3/1
f 4/3/1 2/3/1 3/3/1
f 5/4/1 4/4/1 3/4/1
f 6/4/1 4/4/1 5/4/1
f 7/1/1 6/1/1 5/1/1
f 8/1/1 6/1/1 7/1/1
f 9/2/1 8/2/1 7/2/1
f 10/2/1 8/2/1 9/2/1
f 11/3/2 12/3/2 13/3/2
f 13/3/2 12/3/2 14/3/2
f 14/3/2 12/3/2 15/3/2
f 15/3/2 12/3/2 16/3/2
f 11/3/2 13/3/2 17/3/2
f 13/4/2 14/4/2 17/4/2
f 14/3/2 15/3/2 18/3/2
f 17/4/2 14/4/2 18/4/2
f 11/3/2 17/3/2 19/3/2
f 17/3/2 18/3/2 19/3/2
f 19/3/2 18/3/2 20/3/2
f 15/4/2 16/4/2 21/4/2
f 20/3/2 18/3/2 21/3/2
f 18/3/2 15/3/2 21/3/2
f 16/3/2 12/3/2 22/3/2
f 21/4/2 16/4/2 22/4/2
f 19/4/2 20/4/2 23/4/2
f 11/3/2 19/3/2 23/3/2
f 20/3/2 21/3/2 24/3/2
f 23/4/2 20/4/2 24/4/2
f 21/3/2 22/3/2 24/3/2
f 24/3/2 22/3/2 25/3/2
f 25/3/2 22/3/2 26/3/2
f 23/3/2 24/3/2 27/3/2
f 24/3/2 25/3/2 27/3/2
f 25/4/2 26/4/2 27/4/2
f 26/3/2 22/3/2 28/3/2
f 27/4/2 26/4/2 28/4/2
f 11/3/2 23/3/2 29/3/2
f 23/3/2 27/3/2 29/3/2
f 27/3/2 28/3/2 29/3/2
f 28/3/2 22/3/2 30/3/2
f 29/3/2 28/3/2 30/3/2
f 22/3/2 12/3/2 30/3/2
f 29/4/2 30/4/2 31/4/2
f 31/4/2 30/4/2 32/4/2
f 31/1/2 32/1/2 33/1/2
f 33/1/2 32/1/2 34/1/2
f 33/2/2 34/2/2 35/2/2
f 35/2/2 34/2/2 36/2/2
f 42/3/3 38/3/3 37/3/3
f 43/3/3 38/3/3 42/3/3
f 44/3/3 42/3/3 37/3/3
f 44/4/3 43/4/3 42/4/3
f 45/3/3 38/3/3 43/3/3
f 45/4/3 43/4/3 44/4/3
f 46/3/3 44/3/3 37/3/3
f 46/3/3 45/3/3 44/3/3
f 47/3/3 38/3/3 45/3/3
f 47/3/3 45/3/3 46/3/3
f 48/3/3 46/3/3 37/3/3
f 49/3/3 46/3/3 48/3/3
f 50/3/3 48/3/3 37/3/3
f 50/4/3 49/4/3 48/4/3
f 51/3/3 46/3/3 49/3/3
f 51/4/3 49/4/3 50/4/3
f 52/4/3 47/4/3 46/4/3
f 52/3/3 46/3/3 51/3/3
f 53/3/3 38/3/3 47/3/3
f 53/4/3 47/4/3 52/4/3
f 54/3/3 52/3/3 51/3/3
f 54/3/3 51/3/3 50/3/3
f 54/3/3 53/3/3 52/3/3
f 55/3/3 38/3/3 53/3/3
f 55/3/3 53/3/3 54/3/3
f 56/3/3 54/3/3 50/3/3
f 56/4/3 55/4/3 54/4/3
f 57/3/3 38/3/3 55/3/3
f 57/4/3 55/4/3 56/4/3
f 58/3/3 56/3/3 50/3/3
f 58/3/3 50/3/3 37/3/3
f 58/3/3 57/3/3 56/3/3
f 59/4/3 39/4/3 38/4/3
f 59/3/3 57/3/3 58/3/3
f 59/3/3 38/3/3 57/3/3
f 60/1/3 40/1/3 39/1/3
f 60/4/3 39/4/3 59/4/3
f 61/2/3 41/2/3 40/2/3
f 61/1/3 40/1/3 60/1/3
f 62/2/3 41/2/3 61/2/3
f 63/3/4 64/3/4 68/3/4
f 64/4/4 65/4/4 69/4/4
f 68/3/4 64/3/4 69/3/4
f 65/1/4 66/1/4 70/1/4
f 69/4/4 65/4/4 70/4/4
f 66/2/4 67/2/4 71/2/4
f 70/1/4 66/1/4 71/1/4
f 71/2/4 67/2/4 72/2/4
f 75/3/5 74/3/5 73/3/5
f 76/3/5 74/3/5 75/3/5
f 77/2/6 78/2/6 79/2/6
f 79/2/6 78/2/6 80/2/6
f 79/1/6 80/1/6 81/1/6
f 81/1/6 80/1/6 82/1/6
f 79/1/6 81/1/6 83/1/6
f 81/2/6 82/2/6 83/2/6
f 82/1/6 80/1/6 84/1/6
f 83/2/6 82/2/6 84/2/6
f 77/2/6 79/2/6 85/2/6
f 79/1/6 83/1/6 85/1/6
f 83/1/6 84/1/6 85/1/6
f 84/1/6 80/1/6 86/1/6
f 85/1/6 84/1/6 86/1/6
f 80/2/6 78/2/6 86/2/6
f 77/2/6 85/2/6 87/2/6
f 85/2/6 86/2/6 87/2/6
f 86/2/6 78/2/6 88/2/6
f 87/2/6 86/2/6 88/2/6
