# MagicaVoxel @ Ephtracy

# group
o 

# material
mtllib moonPlayer.mtl
usemtl palette

# normals
vn -1 0 0
vn 1 0 0
vn 0 0 1
vn 0 0 -1
vn 0 -1 0
vn 0 1 0

# texcoords
vt 0.970703 0.5
vt 0.974609 0.5
vt 0.978516 0.5
vt 0.982422 0.5

# verts
v -0.3 -0.5 0.3
v -0.3 -0.5 0.1
v -0.3 -0.5 -0.1
v -0.3 -0.5 -0.3
v -0.3 -0.4 0.3
v -0.3 -0.4 0.1
v -0.3 -0.4 -0.1
v -0.3 -0.4 -0.3
v -0.3 -0.3 0.3
v -0.3 -0.3 -0.3
v -0.3 0.2 0.3
v -0.3 0.2 -0.3
v -0.2 0.2 0.2
v -0.2 0.2 -0.2
v -0.2 0.3 0.2
v -0.2 0.3 -0.2
v 0.1 -0.5 0.3
v 0.1 -0.5 0.1
v 0.1 -0.5 -0.1
v 0.1 -0.5 -0.3
v 0.1 -0.4 0.3
v 0.1 -0.4 0.1
v 0.1 -0.4 -0.1
v 0.1 -0.4 -0.3
v 0.1 -0.3 -0.2
v 0.1 -0.3 -0.3
v 0.1 -0.2 -0.2
v 0.1 -0.2 -0.3
v -0.1 -0.5 0.3
v -0.1 -0.5 0.1
v -0.1 -0.5 -0.1
v -0.1 -0.5 -0.3
v -0.1 -0.4 0.3
v -0.1 -0.4 0.1
v -0.1 -0.4 -0.1
v -0.1 -0.4 -0.3
v -0.1 -0.3 -0.2
v -0.1 -0.3 -0.3
v -0.1 -0.2 -0.2
v -0.1 -0.2 -0.3
v 0.2 0.2 0.2
v 0.2 0.2 -0.2
v 0.2 0.3 0.2
v 0.2 0.3 -0.2
v 0.3 -0.5 0.3
v 0.3 -0.5 0.1
v 0.3 -0.5 -0.1
v 0.3 -0.5 -0.3
v 0.3 -0.4 0.3
v 0.3 -0.4 0.1
v 0.3 -0.4 -0.1
v 0.3 -0.4 -0.3
v 0.3 -0.3 0.3
v 0.3 -0.3 -0.3
v 0.3 0.2 0.3
v 0.3 0.2 -0.3
v -0.3 -0.5 0.3
v -0.3 -0.4 0.3
v -0.3 -0.3 0.3
v -0.3 0.2 0.3
v -0.1 -0.5 0.3
v -0.1 -0.4 0.3
v 0.1 -0.5 0.3
v 0.1 -0.4 0.3
v 0.3 -0.5 0.3
v 0.3 -0.4 0.3
v 0.3 -0.3 0.3
v 0.3 0.2 0.3
v -0.2 0.2 0.2
v -0.2 0.3 0.2
v 0.2 0.2 0.2
v 0.2 0.3 0.2
v -0.3 -0.5 -0.1
v -0.3 -0.4 -0.1
v -0.1 -0.5 -0.1
v -0.1 -0.4 -0.1
v 0.1 -0.5 -0.1
v 0.1 -0.4 -0.1
v 0.3 -0.5 -0.1
v 0.3 -0.4 -0.1
v -0.3 -0.5 0.1
v -0.3 -0.4 0.1
v -0.1 -0.5 0.1
v -0.1 -0.4 0.1
v 0.1 -0.5 0.1
v 0.1 -0.4 0.1
v 0.3 -0.5 0.1
v 0.3 -0.4 0.1
v -0.2 0.2 -0.2
v -0.2 0.3 -0.2
v -0.1 -0.3 -0.2
v -0.1 -0.2 -0.2
v 0.1 -0.3 -0.2
v 0.1 -0.2 -0.2
v 0.2 0.2 -0.2
v 0.2 0.3 -0.2
v -0.3 -0.5 -0.3
v -0.3 -0.4 -0.3
v -0.3 -0.3 -0.3
v -0.3 0.2 -0.3
v -0.2 -0.3 -0.3
v -0.2 -0.1 -0.3
v -0.2 0.1 -0.3
v -0.1 -0.5 -0.3
v -0.1 -0.4 -0.3
v -0.1 -0.3 -0.3
v -0.1 -0.2 -0.3
v -0.1 -0.1 -0.3
v -0.1 0.1 -0.3
v 0.1 -0.5 -0.3
v 0.1 -0.4 -0.3
v 0.1 -0.3 -0.3
v 0.1 -0.2 -0.3
v 0.1 -0.1 -0.3
v 0.1 0.1 -0.3
v 0.2 -0.3 -0.3
v 0.2 -0.1 -0.3
v 0.2 0.1 -0.3
v 0.3 -0.5 -0.3
v 0.3 -0.4 -0.3
v 0.3 -0.3 -0.3
v 0.3 0.2 -0.3
v -0.3 -0.5 0.3
v -0.1 -0.5 0.3
v 0.1 -0.5 0.3
v 0.3 -0.5 0.3
v -0.3 -0.5 0.1
v -0.1 -0.5 0.1
v 0.1 -0.5 0.1
v 0.3 -0.5 0.1
v -0.3 -0.5 -0.1
v -0.1 -0.5 -0.1
v 0.1 -0.5 -0.1
v 0.3 -0.5 -0.1
v -0.3 -0.5 -0.3
v -0.1 -0.5 -0.3
v 0.1 -0.5 -0.3
v 0.3 -0.5 -0.3
v -0.1 -0.4 0.3
v 0.1 -0.4 0.3
v -0.3 -0.4 0.1
v -0.1 -0.4 0.1
v 0.1 -0.4 0.1
v 0.3 -0.4 0.1
v -0.3 -0.4 -0.1
v -0.1 -0.4 -0.1
v 0.1 -0.4 -0.1
v 0.3 -0.4 -0.1
v -0.1 -0.4 -0.3
v 0.1 -0.4 -0.3
v -0.1 -0.2 -0.2
v 0.1 -0.2 -0.2
v -0.1 -0.2 -0.3
v 0.1 -0.2 -0.3
v -0.1 -0.3 -0.2
v 0.1 -0.3 -0.2
v -0.1 -0.3 -0.3
v 0.1 -0.3 -0.3
v -0.3 0.2 0.3
v 0.3 0.2 0.3
v -0.2 0.2 0.2
v 0.2 0.2 0.2
v -0.2 0.2 -0.2
v 0.2 0.2 -0.2
v -0.3 0.2 -0.3
v 0.3 0.2 -0.3
v -0.2 0.3 0.2
v 0.2 0.3 0.2
v -0.2 0.3 -0.2
v 0.2 0.3 -0.2

# faces
f 5/3/1 2/3/1 1/3/1
f 6/3/1 2/3/1 5/3/1
f 7/3/1 4/3/1 3/3/1
f 8/3/1 4/3/1 7/3/1
f 9/1/1 6/1/1 5/1/1
f 9/1/1 7/1/1 6/1/1
f 9/1/1 8/1/1 7/1/1
f 10/1/1 8/1/1 9/1/1
f 11/3/1 10/3/1 9/3/1
f 12/3/1 10/3/1 11/3/1
f 15/3/1 14/3/1 13/3/1
f 16/3/1 14/3/1 15/3/1
f 21/3/1 18/3/1 17/3/1
f 22/3/1 18/3/1 21/3/1
f 23/3/1 20/3/1 19/3/1
f 24/3/1 20/3/1 23/3/1
f 27/1/1 26/1/1 25/1/1
f 28/1/1 26/1/1 27/1/1
f 29/3/2 30/3/2 33/3/2
f 33/3/2 30/3/2 34/3/2
f 31/3/2 32/3/2 35/3/2
f 35/3/2 32/3/2 36/3/2
f 37/1/2 38/1/2 39/1/2
f 39/1/2 38/1/2 40/1/2
f 41/3/2 42/3/2 43/3/2
f 43/3/2 42/3/2 44/3/2
f 45/3/2 46/3/2 49/3/2
f 49/3/2 46/3/2 50/3/2
f 47/3/2 48/3/2 51/3/2
f 51/3/2 48/3/2 52/3/2
f 49/1/2 50/1/2 53/1/2
f 50/1/2 51/1/2 53/1/2
f 51/1/2 52/1/2 53/1/2
f 53/1/2 52/1/2 54/1/2
f 53/3/2 54/3/2 55/3/2
f 55/3/2 54/3/2 56/3/2
f 61/3/3 58/3/3 57/3/3
f 62/1/3 59/1/3 58/1/3
f 62/3/3 58/3/3 61/3/3
f 64/1/3 59/1/3 62/1/3
f 65/3/3 64/3/3 63/3/3
f 66/1/3 59/1/3 64/1/3
f 66/3/3 64/3/3 65/3/3
f 67/3/3 60/3/3 59/3/3
f 67/1/3 59/1/3 66/1/3
f 68/3/3 60/3/3 67/3/3
f 71/3/3 70/3/3 69/3/3
f 72/3/3 70/3/3 71/3/3
f 75/3/3 74/3/3 73/3/3
f 76/3/3 74/3/3 75/3/3
f 79/3/3 78/3/3 77/3/3
f 80/3/3 78/3/3 79/3/3
f 81/3/4 82/3/4 83/3/4
f 83/3/4 82/3/4 84/3/4
f 85/3/4 86/3/4 87/3/4
f 87/3/4 86/3/4 88/3/4
f 91/2/4 92/2/4 93/2/4
f 93/2/4 92/2/4 94/2/4
f 89/3/4 90/3/4 95/3/4
f 95/3/4 90/3/4 96/3/4
f 98/1/4 99/1/4 101/1/4
f 99/3/4 100/3/4 101/3/4
f 101/3/4 100/3/4 102/3/4
f 102/3/4 100/3/4 103/3/4
f 97/3/4 98/3/4 104/3/4
f 98/1/4 101/1/4 105/1/4
f 104/3/4 98/3/4 105/3/4
f 101/1/4 102/1/4 105/1/4
f 105/1/4 102/1/4 106/1/4
f 106/1/4 102/1/4 107/1/4
f 102/4/4 103/4/4 108/4/4
f 107/1/4 102/1/4 108/1/4
f 103/3/4 100/3/4 109/3/4
f 108/4/4 103/4/4 109/4/4
f 105/1/4 106/1/4 111/1/4
f 111/1/4 106/1/4 112/1/4
f 107/1/4 108/1/4 113/1/4
f 108/2/4 109/2/4 114/2/4
f 113/1/4 108/1/4 114/1/4
f 109/3/4 100/3/4 115/3/4
f 114/2/4 109/2/4 115/2/4
f 111/1/4 112/1/4 116/1/4
f 113/1/4 114/1/4 116/1/4
f 112/1/4 113/1/4 116/1/4
f 114/4/4 115/4/4 117/4/4
f 116/1/4 114/1/4 117/1/4
f 115/3/4 100/3/4 118/3/4
f 117/4/4 115/4/4 118/4/4
f 110/3/4 111/3/4 119/3/4
f 111/1/4 116/1/4 120/1/4
f 119/3/4 111/3/4 120/3/4
f 116/3/4 117/3/4 121/3/4
f 120/1/4 116/1/4 121/1/4
f 117/3/4 118/3/4 121/3/4
f 118/3/4 100/3/4 122/3/4
f 121/3/4 118/3/4 122/3/4
f 127/3/5 124/3/5 123/3/5
f 128/3/5 124/3/5 127/3/5
f 129/3/5 126/3/5 125/3/5
f 130/3/5 126/3/5 129/3/5
f 135/3/5 132/3/5 131/3/5
f 136/3/5 132/3/5 135/3/5
f 137/3/5 134/3/5 133/3/5
f 138/3/5 134/3/5 137/3/5
f 142/1/5 140/1/5 139/1/5
f 143/1/5 140/1/5 142/1/5
f 145/1/5 142/1/5 141/1/5
f 145/1/5 144/1/5 143/1/5
f 145/1/5 143/1/5 142/1/5
f 146/1/5 144/1/5 145/1/5
f 147/1/5 144/1/5 146/1/5
f 148/1/5 144/1/5 147/1/5
f 149/1/5 147/1/5 146/1/5
f 150/1/5 147/1/5 149/1/5
f 153/1/5 152/1/5 151/1/5
f 154/1/5 152/1/5 153/1/5
f 155/1/6 156/1/6 157/1/6
f 157/1/6 156/1/6 158/1/6
f 159/3/6 160/3/6 161/3/6
f 161/3/6 160/3/6 162/3/6
f 159/3/6 161/3/6 163/3/6
f 162/3/6 160/3/6 164/3/6
f 159/3/6 163/3/6 165/3/6
f 163/3/6 164/3/6 165/3/6
f 164/3/6 160/3/6 166/3/6
f 165/3/6 164/3/6 166/3/6
f 167/3/6 168/3/6 169/3/6
f 169/3/6 168/3/6 170/3/6
